<?xml version="1.0" encoding="UTF-8" standalone="no"?>
<!-- Created with Inkscape (http://www.inkscape.org/) -->

<svg
   width="135.46666mm"
   height="136.09772mm"
   viewBox="0 0 135.46666 136.09772"
   version="1.1"
   id="svg1"
   xml:space="preserve"
   xmlns="http://www.w3.org/2000/svg"
   xmlns:svg="http://www.w3.org/2000/svg"><defs
     id="defs1" /><g
     id="layer2"
     style="display:inline"><rect
       style="display:inline;fill:#ffe8cc;fill-opacity:1;stroke:none;stroke-width:0.264583"
       id="rect2406"
       width="135.46666"
       height="135.46666"
       x="3.3715818e-07"
       y="2.2705078e-07" /><path
       style="display:inline;opacity:1;fill:#5e584c;fill-opacity:1;stroke:none;stroke-width:0.264583px;stroke-linecap:butt;stroke-linejoin:miter;stroke-opacity:1"
       d="m 72.770513,188.14359 -4.15017,28.08974 h 71.215597 l -3.25938,-27.2738 z"
       id="path2401"
       transform="translate(-37.195789,-80.766671)" /><path
       style="display:inline;fill:#776e58;fill-opacity:1;stroke:none;stroke-width:0.264583px;stroke-linecap:butt;stroke-linejoin:miter;stroke-opacity:1"
       d="m 10.607143,81.91978 c 1.087912,-5.221978 2.175835,-10.444009 4.106901,-15.829203 1.931066,-5.385194 4.705214,-10.933491 7.615397,-15.230747 2.910182,-4.297256 6.037867,-7.42494 9.478426,-10.185541 3.440559,-2.7606 7.193781,-5.15396 11.463884,-7.139415 4.270103,-1.985455 9.056868,-3.562912 14.091842,-4.515037 5.034974,-0.952126 10.30789,-1.278286 15.038673,-1.006196 4.730784,0.27209 8.919161,1.142403 13.134863,2.583906 4.215702,1.441504 8.458474,3.454101 12.728573,6.173916 4.270098,2.719814 8.567258,6.146665 12.130208,10.389575 3.56294,4.242911 6.39145,9.301598 8.64888,14.414838 2.25744,5.11324 3.94367,10.280719 4.7868,13.762054 0.84313,3.481336 0.84313,5.276355 0.84313,7.071409 0,0 -9.95439,0 -9.95439,0 0.38077,2.121429 0.76154,4.242858 0.97912,6.282712 0.21758,2.039854 0.27198,3.998058 0.32637,5.956299 0,0 -10.44395,0.163187 -10.44395,0.163187 0.48956,2.067034 0.97912,4.134067 1.33269,6.309913 0.35358,2.17585 0.57116,4.46042 0.78874,6.74503 0,0 -21.051103,-0.65275 -21.051103,-0.65275 0,0 4.895604,-28.720873 4.895604,-28.720873 2.284615,-1.142308 4.569232,-2.284616 6.581886,-4.270084 2.012653,-1.985468 3.753273,-4.813985 5.058783,-7.669783 1.3055,-2.855798 2.17581,-5.738705 1.14226,-9.356056 -1.03354,-3.617352 -3.97084,-7.968911 -7.533795,-10.389521 -3.562953,-2.42061 -7.751331,-2.910161 -11.803842,-2.474982 -4.052512,0.435178 -7.968917,1.795041 -11.504663,2.42059 -3.535746,0.625549 -6.690659,0.516758 -9.639696,0.03206 -2.949037,-0.484694 -5.738694,-1.359881 -8.357475,-2.069466 -2.618781,-0.709586 -5.066534,-1.253531 -8.384708,-0.899947 -3.318174,0.353584 -7.506552,1.604658 -10.498327,4.378877 -2.991776,2.774219 -4.786795,7.071385 -5.140356,11.069498 -0.353561,3.998114 0.734329,7.696941 2.393417,10.525532 1.659088,2.828591 3.889264,4.786794 5.602737,6.418676 1.713473,1.631881 2.910154,2.93735 3.75329,4.542039 0.843137,1.60469 1.332687,3.508496 2.144502,8.105641 0.811815,4.597144 1.962361,11.993516 3.104669,19.336926 0,0 -21.703845,-0.16319 -21.703845,-0.16319 0.435165,-3.04615 0.87033,-6.09231 1.359895,-8.349741 0.489566,-2.257432 1.033511,-3.726085 1.577467,-5.194767 0,0 -11.25989,0.163188 -11.25989,0.163188 0.271978,-2.175824 0.543956,-4.351647 0.897532,-6.4187 0.353576,-2.067054 0.788731,-4.025255 1.223896,-5.983496 z"
       id="path2407" /><g
       id="g2414"
       style="display:inline;opacity:1"><path
         style="display:inline;fill:#4f4a40;fill-opacity:1;stroke:none;stroke-width:0.264583px;stroke-linecap:butt;stroke-linejoin:miter;stroke-opacity:1"
         d="m 42.346977,109.29437 c 0.0544,1.06071 0.108791,2.12142 0.244783,3.22294 0.135991,1.10153 0.353569,2.24381 0.598353,3.16854 0.244784,0.92474 0.516756,1.63187 0.836334,2.26422 0.319578,0.63236 0.68674,1.1899 1.094712,1.67946 0.407973,0.48957 0.856729,0.91113 1.325896,1.2783 0.469166,0.36717 0.958712,0.67994 1.40068,0.91793 0.441969,0.23798 0.83633,0.40116 1.217103,0.52355 0.380774,0.1224 0.747936,0.20399 1.060714,0.26518 0.312778,0.0612 0.571151,0.10199 0.82953,0.14279 0.203983,0.53036 0.407966,1.06071 0.849938,1.82226 0.441972,0.76155 1.121903,1.75425 1.754256,2.4614 0.632354,0.70714 1.217095,1.1287 1.86985,1.58427 0.652756,0.45557 1.373483,0.94512 2.101031,1.32589 0.727548,0.38077 1.461876,0.65274 2.325416,0.89073 0.86354,0.23798 1.856241,0.44196 2.916965,0.55075 1.060725,0.10879 2.189411,0.12239 3.562916,0.12239 1.373505,0 2.991744,-0.0136 4.433239,-0.0476 1.441495,-0.034 2.706169,-0.0884 3.746494,-0.22438 1.040325,-0.13599 1.856242,-0.35357 2.685784,-0.67995 0.829542,-0.32638 1.672655,-0.76153 2.407001,-1.2715 0.734346,-0.50996 1.359885,-1.0947 1.890247,-1.66586 0.530361,-0.57116 0.965514,-1.1287 1.346287,-1.63187 0.380773,-0.50316 0.707144,-0.95192 0.924726,-1.42788 0.217583,-0.47597 0.326371,-0.97912 0.435162,-1.48228 0.87033,-0.28558 1.740658,-0.57115 2.475005,-0.91793 0.734346,-0.34677 1.332686,-0.75473 1.944645,-1.2239 0.611958,-0.46917 1.237491,-0.99951 1.801851,-1.65907 0.56436,-0.65955 1.067509,-1.44827 1.434683,-2.23702 0.367173,-0.78874 0.59835,-1.57746 0.761537,-2.3254 0.163188,-0.74795 0.258379,-1.45509 0.353572,-2.14184 0.09519,-0.68675 0.190384,-1.35308 0.224381,-1.82905 0.034,-0.47596 0.0068,-0.76153 -0.0204,-1.04711 z"
         id="path2416" /><path
         style="display:inline;opacity:1;fill:#666153;fill-opacity:1;stroke:none;stroke-width:0.264583px;stroke-linecap:butt;stroke-linejoin:miter;stroke-opacity:1"
         d="m 41.829055,105.98617 c -0.730806,-5.86568 -1.461612,-11.731362 -1.846248,-14.952686 -0.384635,-3.221325 -0.423098,-3.798265 -0.403865,-4.250214 0.01923,-0.451949 0.09616,-0.778884 0.259632,-1.038513 0.163472,-0.25963 0.41348,-0.451944 0.699555,-0.562527 0.286075,-0.110582 0.608198,-0.139428 0.89879,-0.146056 0.290592,-0.0066 0.549628,0.009 0.795421,0.07984 0.245793,0.07088 0.478313,0.19705 0.64929,0.453696 0.170978,0.256647 0.28039,0.643741 0.931295,4.11638 0.650906,3.472638 1.84325,10.030524 3.035618,16.588547 z"
         id="path2415"
         transform="matrix(-1,0,0,1,135.40681,0)" /><path
         style="fill:#666153;fill-opacity:1;stroke:none;stroke-width:0.264583px;stroke-linecap:butt;stroke-linejoin:miter;stroke-opacity:1"
         d="m 41.829055,105.98617 c -0.730806,-5.86568 -1.461612,-11.731362 -1.846248,-14.952686 -0.384635,-3.221325 -0.423098,-3.798265 -0.403865,-4.250214 0.01923,-0.451949 0.09616,-0.778884 0.259632,-1.038513 0.163472,-0.25963 0.41348,-0.451944 0.699555,-0.562527 0.286075,-0.110582 0.608198,-0.139428 0.89879,-0.146056 0.290592,-0.0066 0.549628,0.009 0.795421,0.07984 0.245793,0.07088 0.478313,0.19705 0.64929,0.453696 0.170978,0.256647 0.28039,0.643741 0.931295,4.11638 0.650906,3.472638 1.84325,10.030524 3.035618,16.588547 z"
         id="path2423" /></g><g
       id="g2413"
       style="display:inline"><path
         style="display:inline;fill:#87674a;fill-opacity:1;stroke:none;stroke-width:0.264583px;stroke-linecap:butt;stroke-linejoin:miter;stroke-opacity:1"
         d="m 26.599451,10.443956 c 4.895604,1.414286 9.791208,2.828571 13.299745,5.222012 3.508538,2.39344 5.629924,5.765901 6.885995,8.484761 1.25607,2.71886 1.626896,4.678941 2.007666,6.691578 -3.916483,1.903846 -7.832968,3.807693 -11.368713,5.874748 -3.535745,2.067055 -6.690628,4.29723 -9.845573,6.52745 z"
         id="path2405"
         transform="matrix(-1,0,0,1,135.77142,-0.48956044)" /><path
         style="display:inline;fill:#87674a;fill-opacity:1;stroke:none;stroke-width:0.264583px;stroke-linecap:butt;stroke-linejoin:miter;stroke-opacity:1"
         d="m 26.599451,10.443956 c 4.895604,1.414286 9.791208,2.828571 13.299745,5.222012 3.508538,2.39344 5.629924,5.765901 6.885995,8.484761 1.25607,2.71886 1.626896,4.678941 2.007666,6.691578 -3.916483,1.903846 -7.832968,3.807693 -11.368713,5.874748 -3.535745,2.067055 -6.690628,4.29723 -9.845573,6.52745 z"
         id="path2404" /></g><g
       id="g2426"
       style="display:inline"><g
         id="g2430"
         style="opacity:1"><path
           style="fill:#000000;fill-opacity:0;stroke:#212529;stroke-width:3.70417;stroke-linecap:butt;stroke-linejoin:miter;stroke-dasharray:none;stroke-opacity:1"
           d="m 104.03143,135.847 c -1.2735,-9.32104 -2.54699,-18.6421 -3.82049,-27.96315"
           id="path2426"
           transform="matrix(-1,0,0,1,135.35676,0)" /><path
           style="display:inline;opacity:1;fill:none;fill-opacity:1;stroke:#212529;stroke-width:3.96875;stroke-linecap:round;stroke-linejoin:miter;stroke-dasharray:none;stroke-opacity:1"
           d="m 103.15911,88.966076 c 0.67311,1.384686 1.34622,2.769372 1.97126,4.365627 0.62504,1.596254 1.20198,3.404001 1.65393,5.192569 0.45195,1.788568 0.77888,3.557858 0.95197,5.125258 0.17308,1.5674 0.19232,2.93283 0.21155,4.29828 0,0 -21.462629,0 -21.462629,0"
           id="path2425"
           transform="matrix(-1,0,0,1,135.35676,0)" /><path
           style="fill:#000000;fill-opacity:0;stroke:#212529;stroke-width:3.70417;stroke-linecap:round;stroke-linejoin:miter;stroke-dasharray:none;stroke-opacity:1"
           d="m 112.51406,75.935416 c 0.63942,1.785973 1.27883,3.571894 1.8366,5.5903 0.55778,2.018407 1.04731,4.332519 1.35822,6.658199 0.31091,2.325679 0.4432,4.662785 0.57549,6.999938 0,0 -10.31875,0 -10.31875,0"
           id="path2427"
           transform="matrix(-1,0,0,1,135.35676,0)" /><path
           style="fill:#000000;fill-opacity:0;stroke:#212529;stroke-width:3.70417;stroke-linecap:round;stroke-linejoin:miter;stroke-dasharray:none;stroke-opacity:1"
           d="m 114.89531,82.483853 c 3.35139,0 6.70278,0 10.05417,0 -0.24254,-3.02066 -0.48507,-6.041318 -1.01425,-9.006885 -0.52917,-2.965568 -1.34495,-5.875926 -2.3151,-8.576905 -0.97015,-2.700979 -2.09461,-5.192424 -3.61598,-7.893409 -1.52138,-2.700985 -3.43957,-5.611342 -5.45704,-8.102856 -2.01747,-2.491514 -4.13409,-4.56404 -6.63664,-6.669703 -2.50254,-2.105663 -5.39085,-4.244337 -8.499739,-6.12951 C 94.301843,34.219412 90.972568,32.587847 87.588072,31.26492 84.203576,29.941993 80.764061,28.927777 77.478818,28.398611 74.193575,27.869444 71.062672,27.825347 67.93177,27.78125"
           id="path2428"
           transform="matrix(-1,0,0,1,135.35676,0)" /><path
           style="fill:#000000;fill-opacity:0;stroke:#212529;stroke-width:3.70417;stroke-linecap:round;stroke-linejoin:miter;stroke-dasharray:none;stroke-opacity:1"
           d="m 86.98177,36.18177 c -0.110243,-1.565452 -0.220486,-3.130901 -0.04409,-5.192473 0.176393,-2.061571 0.639404,-4.619158 1.620583,-7.088627 0.981178,-2.469468 2.480453,-4.850669 4.156166,-6.647644 1.675713,-1.796974 3.527759,-3.009623 5.501131,-4.012843 1.973372,-1.00322 4.067942,-1.796953 5.699552,-2.204854 1.63161,-0.4079 2.80016,-0.42995 3.96874,-0.452 0,0 0,33.072916 0,33.072916"
           id="path2429"
           transform="matrix(-1,0,0,1,135.35676,0)" /></g><g
         id="g2434"><path
           style="fill:#000000;fill-opacity:0;stroke:#212529;stroke-width:3.70417;stroke-linecap:butt;stroke-linejoin:miter;stroke-dasharray:none;stroke-opacity:1"
           d="m 104.04739,135.70448 c -1.27881,-9.27353 -2.55763,-18.54708 -3.83645,-27.82063"
           id="path2430" /><path
           style="display:inline;opacity:1;fill:none;fill-opacity:1;stroke:#212529;stroke-width:3.96875;stroke-linecap:round;stroke-linejoin:miter;stroke-dasharray:none;stroke-opacity:1"
           d="m 103.15911,88.966076 c 0.67311,1.384686 1.34622,2.769372 1.97126,4.365627 0.62504,1.596254 1.20198,3.404001 1.65393,5.192569 0.45195,1.788568 0.77888,3.557858 0.95197,5.125258 0.17308,1.5674 0.19232,2.93283 0.21155,4.29828 0,0 -21.462629,0 -21.462629,0"
           id="path2431" /><path
           style="fill:#000000;fill-opacity:0;stroke:#212529;stroke-width:3.70417;stroke-linecap:round;stroke-linejoin:miter;stroke-dasharray:none;stroke-opacity:1"
           d="m 112.51406,75.935416 c 0.63942,1.785973 1.27883,3.571894 1.8366,5.5903 0.55778,2.018407 1.04731,4.332519 1.35822,6.658199 0.31091,2.325679 0.4432,4.662785 0.57549,6.999938 0,0 -10.31875,0 -10.31875,0"
           id="path2432" /><path
           style="fill:#000000;fill-opacity:0;stroke:#212529;stroke-width:3.70417;stroke-linecap:round;stroke-linejoin:miter;stroke-dasharray:none;stroke-opacity:1"
           d="m 114.89531,82.483853 c 3.35139,0 6.70278,0 10.05417,0 -0.24254,-3.02066 -0.48507,-6.041318 -1.01425,-9.006885 -0.52917,-2.965568 -1.34495,-5.875926 -2.3151,-8.576905 -0.97015,-2.700979 -2.09461,-5.192424 -3.61598,-7.893409 -1.52138,-2.700985 -3.43957,-5.611342 -5.45704,-8.102856 -2.01747,-2.491514 -4.13409,-4.56404 -6.63664,-6.669703 -2.50254,-2.105663 -5.39085,-4.244337 -8.499739,-6.12951 -3.108888,-1.885173 -6.438163,-3.516738 -9.828172,-4.839665 -3.390008,-1.322927 -6.840477,-2.337122 -10.125786,-2.8663 -3.285309,-0.529177 -6.405125,-0.573273 -9.525003,-0.61737"
           id="path2433" /><path
           style="fill:#000000;fill-opacity:0;stroke:#212529;stroke-width:3.70417;stroke-linecap:round;stroke-linejoin:miter;stroke-dasharray:none;stroke-opacity:1"
           d="m 86.98177,36.18177 c -0.110243,-1.565452 -0.220486,-3.130901 -0.04409,-5.192473 0.176393,-2.061571 0.639404,-4.619158 1.620583,-7.088627 0.981178,-2.469468 2.480453,-4.850669 4.156166,-6.647644 1.675713,-1.796974 3.527759,-3.009623 5.501131,-4.012843 1.973372,-1.00322 4.067942,-1.796953 5.699552,-2.204854 1.63161,-0.4079 2.80016,-0.42995 3.96874,-0.452 0,0 0,33.072916 0,33.072916"
           id="path2434" /></g></g><path
       style="display:inline;fill:#ced4da;fill-opacity:1;stroke:none;stroke-width:0.264583px;stroke-linecap:butt;stroke-linejoin:miter;stroke-opacity:1"
       d="m 46.834615,95.464285 41.44945,0.163187 -2.937362,18.929668 -6.037913,1.63187 -2.937362,7.01703 L 59.4,123.6956 57.115384,117.16813 50.424725,115.0467 Z"
       id="path2402" /><path
       style="display:inline;fill:#87613e;fill-opacity:1;stroke:none;stroke-width:0.264583px;stroke-linecap:butt;stroke-linejoin:miter;stroke-opacity:1"
       d="m 47.732142,97.096153 c 0,0 10.851923,2.610987 10.851923,2.610987 0,0 18.032142,0.163188 18.032142,0.163188 0,0 11.259891,-2.692583 11.259891,-2.692583 0,0 4.650825,-13.911675 4.650825,-13.911675 0,0 1.754256,-3.018957 1.754256,-3.018957 1.101512,-0.421566 2.203024,-0.843132 3.637726,-1.61828 1.434701,-0.775149 3.202535,-1.903844 4.705225,-3.236547 1.50268,-1.332703 2.74017,-2.869363 3.73289,-4.610034 0.99272,-1.74067 1.74065,-3.685295 2.22116,-5.283551 0.48051,-1.598256 0.70034,-2.889744 0.72186,-4.324253 0.0215,-1.434509 -0.15526,-3.011949 -0.50204,-4.616634 -0.34678,-1.604685 -0.86352,-3.236522 -1.55708,-4.712017 -0.69355,-1.475495 -1.56386,-2.794561 -2.4818,-3.964076 -0.91793,-1.169515 -1.88344,-2.18942 -2.99277,-3.049715 -1.10933,-0.860295 -2.379788,-1.570662 -3.504604,-2.123041 -1.124816,-0.55238 -2.103918,-0.946739 -3.293836,-1.286715 -1.189918,-0.339975 -2.590577,-0.625547 -3.984478,-0.775136 -1.3939,-0.149588 -2.780959,-0.163188 -4.18846,-0.0272 -1.407502,0.135991 -2.835358,0.421562 -3.943677,0.720741 -1.108318,0.299179 -1.897038,0.611948 -3.168553,0.992722 -1.271514,0.380773 -3.025736,0.829528 -4.603223,1.149103 -1.577487,0.319576 -2.978146,0.509957 -4.202058,0.645947 -1.223912,0.13599 -2.271017,0.217583 -3.676767,0.143015 -1.40575,-0.07457 -3.175321,-0.305973 -4.808077,-0.646065 -1.632757,-0.340091 -3.128606,-0.788847 -4.774092,-1.278413 -1.645485,-0.489566 -3.440503,-1.019912 -5.187979,-1.353086 -1.747477,-0.333175 -3.447305,-0.469161 -4.773208,-0.46916 -1.325902,2e-6 -2.277804,0.135988 -3.68531,0.557561 -1.407505,0.421573 -3.270518,1.128703 -4.752809,1.835852 -1.482291,0.70715 -2.58378,1.414279 -3.766897,2.509005 -1.183116,1.094726 -2.44779,2.576978 -3.440517,4.066073 -0.992727,1.489095 -1.713454,2.984942 -2.271013,4.691624 -0.557558,1.706682 -0.951918,3.624088 -1.108305,5.017985 -0.156386,1.393896 -0.0748,2.264208 0.101993,3.345333 0.176789,1.081125 0.448762,2.372995 0.877133,3.753298 0.428371,1.380304 1.013112,2.848956 1.781459,4.229257 0.768346,1.3803 1.720251,2.672171 2.556591,3.624101 0.83634,0.951929 1.557067,1.563867 2.243819,2.053432 0.686751,0.489564 1.339484,0.856726 1.965039,1.189902 0.625556,0.333176 1.223896,0.632346 1.822248,0.931522 0,0 3.467719,4.610026 3.467719,4.610026 z"
       id="path2408" /><g
       id="g2412"
       style="display:inline"><g
         id="g2411"
         style="display:inline;opacity:1"
         transform="matrix(-1,0,0,1,135.44067,0)"><circle
           style="display:inline;fill:#fcc419;fill-opacity:1;stroke:none;stroke-width:0.264583"
           id="circle2410"
           cx="46.50824"
           cy="61.358238"
           r="8.485714" /><circle
           style="display:inline;fill:#212529;fill-opacity:1;stroke:none;stroke-width:0.0686898"
           id="circle2411"
           cx="46.50824"
           cy="61.358238"
           r="2.2030215" /><path
           style="color:#000000;fill:none;fill-opacity:1;stroke:#212529;stroke-width:3.46604;stroke-linejoin:round;stroke-dasharray:none;stroke-opacity:1;paint-order:stroke fill markers"
           d="m 47.98589,50.963329 c -1.164574,-0.165426 -2.354907,-0.138277 -3.509766,0.08984 -2.309718,0.45624 -4.451556,1.71442 -5.974609,3.509765 -1.523053,1.795345 -2.414657,4.111648 -2.488281,6.464844 l 0.265625,0.0078 c 0.0717,-2.291804 0.942462,-4.554227 2.425781,-6.302734 1.483318,-1.748507 3.572805,-2.975584 5.822265,-3.419922 2.249461,-0.444338 4.648808,-0.103967 6.685547,0.949219 2.03674,1.053186 3.702904,2.815791 4.640625,4.908203 1.366939,3.050158 1.108856,6.78173 -0.664062,9.615234 -1.772918,2.833505 -5.018558,4.698211 -8.359375,4.802735 l 0.0098,0.263672 c 3.433519,-0.107425 6.752106,-2.013653 8.574219,-4.925782 1.822113,-2.912128 2.084557,-6.73044 0.679688,-9.865234 -0.962841,-2.148462 -2.668467,-3.951804 -4.759766,-5.033203 -1.045649,-0.540699 -2.183082,-0.899027 -3.347656,-1.064453 z"
           id="path2411" /></g><g
         id="g2409"
         style="display:inline"><circle
           style="display:inline;fill:#fcc419;fill-opacity:1;stroke:none;stroke-width:0.264583"
           id="circle2409"
           cx="46.50824"
           cy="61.358238"
           r="8.485714" /><circle
           style="display:inline;fill:#212529;fill-opacity:1;stroke:none;stroke-width:0.0686898"
           id="path2406"
           cx="46.50824"
           cy="61.358238"
           r="2.2030215" /><path
           style="color:#000000;fill:none;fill-opacity:1;stroke:#212529;stroke-width:3.46604;stroke-linecap:round;stroke-linejoin:round;stroke-dasharray:none;stroke-opacity:1;paint-order:stroke fill markers"
           d="m 47.98589,50.963329 c -1.164574,-0.165426 -2.354907,-0.138277 -3.509766,0.08984 -2.309718,0.45624 -4.451556,1.71442 -5.974609,3.509765 -1.523053,1.795345 -2.414657,4.111648 -2.488281,6.464844 l 0.265625,0.0078 c 0.0717,-2.291804 0.942462,-4.554227 2.425781,-6.302734 1.483318,-1.748507 3.572805,-2.975584 5.822265,-3.419922 2.249461,-0.444338 4.648808,-0.103967 6.685547,0.949219 2.03674,1.053186 3.702904,2.815791 4.640625,4.908203 1.366939,3.050158 1.108856,6.78173 -0.664062,9.615234 -1.772918,2.833505 -5.018558,4.698211 -8.359375,4.802735 l 0.0098,0.263672 c 3.433519,-0.107425 6.752106,-2.013653 8.574219,-4.925782 1.822113,-2.912128 2.084557,-6.73044 0.679688,-9.865234 -0.962841,-2.148462 -2.668467,-3.951804 -4.759766,-5.033203 -1.045649,-0.540699 -2.183082,-0.899027 -3.347656,-1.064453 z"
           id="path2409" /></g></g><g
       id="g2418"
       style="display:inline;opacity:1"><path
         style="display:inline;fill:#212529;fill-opacity:1;stroke:none;stroke-width:0.264583px;stroke-linecap:butt;stroke-linejoin:miter;stroke-opacity:1"
         d="m 55.214355,117.64061 c 0.03846,0.77889 0.07693,1.55778 0.192319,2.26455 0.115392,0.70677 0.307706,1.34141 0.581763,1.92798 0.274056,0.58658 0.629833,1.12505 1.024089,1.63951 0.394257,0.51445 0.826962,1.00485 1.278913,1.3943 0.451951,0.38944 0.923119,0.67791 1.408726,0.91831 0.485607,0.2404 0.985623,0.43272 1.399109,0.55773 0.413486,0.125 0.740421,0.1827 1.413541,0.22596 0.67312,0.0433 1.692384,0.0721 3.452114,0.10093 1.75973,0.0288 4.259807,0.0577 5.904129,-0.0289 1.644322,-0.0866 2.432809,-0.28848 3.149196,-0.58658 0.716387,-0.2981 1.360643,-0.69234 1.918368,-1.13467 0.557725,-0.44234 1.028894,-0.93274 1.442379,-1.41835 0.413485,-0.4856 0.76927,-0.96639 1.054493,-1.48211 0.285224,-0.51573 0.509634,-1.09139 0.63146,-1.63406 0.121826,-0.54267 0.141056,-1.0523 0.136247,-1.5331 -0.0048,-0.4808 -0.03365,-0.93273 -0.0625,-1.38468 -1.34625,0.0192 -2.692446,0.0385 -4.038669,0.0577 0.04808,0.53851 0.09616,1.07699 0.07429,1.53907 -0.02188,0.46208 -0.120198,0.87504 -0.337641,1.26422 -0.217443,0.38919 -0.553994,0.75459 -0.909785,1.09115 -0.355791,0.33656 -0.730802,0.64426 -1.072174,0.8462 -0.341373,0.20193 -0.649062,0.29808 -1.081784,0.36058 -0.432721,0.0625 -0.99043,0.0913 -2.63958,0.10094 -1.64915,0.01 -4.389619,2e-5 -5.961817,-0.0384 -1.572198,-0.0385 -1.976059,-0.10577 -2.312617,-0.21154 -0.336559,-0.10578 -0.605797,-0.25001 -0.889468,-0.47599 -0.283671,-0.22597 -0.581764,-0.53368 -0.836836,-0.83505 -0.255073,-0.30137 -0.48079,-0.61541 -0.632114,-0.96957 -0.151325,-0.35415 -0.22825,-0.74839 -0.257099,-1.19554 -0.02885,-0.44714 -0.0096,-0.94715 0.0096,-1.44718 z"
         id="path2422" /><path
         style="fill:none;stroke:#212529;stroke-width:3.70417;stroke-linecap:round;stroke-linejoin:round;stroke-dasharray:none;stroke-opacity:1"
         d="m 44.432343,82.725691 c 1.593902,9.734366 3.187806,19.468739 4.013604,24.489779 0.825799,5.02103 0.883492,5.32873 1.114277,5.75183 0.230784,0.42311 0.634643,0.96159 1.028897,1.38469 0.394254,0.4231 0.778882,0.7308 1.173138,0.9712 0.394256,0.2404 0.798113,0.41348 1.240447,0.53849 0.442334,0.12501 0.923121,0.20193 1.384687,0.2404 0.461567,0.0385 0.90389,0.0385 5.000329,0.0577 4.096439,0.0192 11.84668,0.0577 16.05844,0.0673 4.21176,0.01 4.88486,-0.01 5.442588,-0.0673 0.557729,-0.0577 1.000041,-0.15385 1.394296,-0.27886 0.394255,-0.12501 0.740419,-0.27886 1.163522,-0.54811 0.423103,-0.26925 0.923116,-0.65387 1.278907,-0.98082 0.355792,-0.32694 0.567338,-0.59618 0.75004,-0.91351 0.182702,-0.31732 0.336555,-0.68272 0.490411,-1.05774 0.153856,-0.37503 0.307708,-0.75966 1.161067,-5.70509 C 87.980352,101.7302 89.54231,92.168295 91.1043,82.6062"
         id="path2417" /><path
         style="fill:#212529;fill-opacity:1;stroke:none;stroke-width:0.264583px;stroke-linecap:butt;stroke-linejoin:miter;stroke-opacity:1"
         d="m 65.648893,114.62474 c -0.01593,-1.16484 -0.03187,-2.32968 -0.0478,-3.49452 -1.142308,-0.63915 -2.284616,-1.2783 -3.229746,-1.93105 -0.945131,-0.65276 -1.693055,-1.31909 -2.393405,-2.11464 -0.70035,-0.79554 -1.353087,-1.72025 -1.801851,-2.65858 -0.448765,-0.93833 -0.693542,-1.89024 -0.781933,-2.63139 -0.08839,-0.74114 -0.0204,-1.27148 0.163188,-1.71345 0.183588,-0.441969 0.482759,-0.795536 0.890731,-1.14911 0.407972,-0.353575 0.924718,-0.707139 1.332688,-0.931521 0.40797,-0.224383 0.707141,-0.319573 3.243384,-0.360369 2.536243,-0.0408 7.309408,-0.0272 9.762237,0.009 2.452829,0.03624 2.570165,0.08839 2.832825,0.25046 0.26266,0.162068 0.670618,0.43404 1.07859,0.780816 0.407972,0.346776 0.81593,0.768333 1.07431,1.2239 0.25838,0.455568 0.367168,0.945118 0.353568,1.631868 -0.0136,0.68675 -0.149587,1.57067 -0.448768,2.39341 -0.299182,0.82274 -0.761532,1.58426 -1.339492,2.27101 -0.57796,0.68675 -1.27149,1.29869 -2.189427,2.00584 -0.917937,0.70715 -2.060222,1.50947 -2.835365,1.99904 -0.775143,0.48956 -1.1831,0.66634 -1.591067,0.84312 0.0071,1.2004 0.01428,2.40081 0.02142,3.60121 z"
         id="path2421" /></g><path
       style="display:inline;fill:#343a40;fill-opacity:1;stroke:none;stroke-width:0.264583px;stroke-linecap:butt;stroke-linejoin:miter;stroke-opacity:1"
       d="M 61.297046,101.56339 74.25,101.58379 c -0.428522,1.31172 -0.787014,1.89781 -2.182625,3.30453 -1.229058,1.05884 -2.685821,1.94454 -4.263255,2.5702 -1.560236,-0.64491 -2.485807,-1.01841 -4.385646,-2.61099 -1.201194,-1.19017 -1.827059,-2.14196 -2.121428,-3.28414 z"
       id="path2403" /></g></svg>
